# MagicaVoxel @ Ephtracy

# group
g wall_v1

# material
mtllib wall_v1.mtl
usemtl palette

# normals
vn -1 0 0
vn 1 0 0
vn 0 0 1
vn 0 0 -1
vn 0 -1 0
vn 0 1 0

# texcoords
vt 0.955078 0.5
vt 0.958984 0.5

# verts
v -18 0 2
v -18 0 1
v -18 0 -1
v -18 0 -2
v -18 18 1
v -18 18 -1
v -18 19 3
v -18 19 2
v -18 19 -2
v -18 19 -3
v -18 20 3
v -18 20 -3
v -18 21 4
v -18 21 3
v -18 21 -3
v -18 21 -4
v -18 22 4
v -18 22 -4
v -17 0 3
v -17 0 2
v -17 0 -2
v -17 0 -3
v -17 19 3
v -17 19 2
v -17 19 -2
v -17 19 -3
v -17 20 4
v -17 20 3
v -17 20 -3
v -17 20 -4
v -17 21 5
v -17 21 4
v -17 21 3
v -17 21 -3
v -17 21 -4
v -17 21 -5
v -17 22 5
v -17 22 4
v -17 22 -4
v -17 22 -5
v -16 22 3
v -16 22 -3
v -16 23 3
v -16 23 -3
v 16 22 3
v 16 22 -3
v 16 23 3
v 16 23 -3
v 17 0 3
v 17 0 2
v 17 0 -2
v 17 0 -3
v 17 19 3
v 17 19 2
v 17 19 -2
v 17 19 -3
v 17 20 4
v 17 20 3
v 17 20 -3
v 17 20 -4
v 17 21 5
v 17 21 4
v 17 21 3
v 17 21 -3
v 17 21 -4
v 17 21 -5
v 17 22 5
v 17 22 4
v 17 22 -4
v 17 22 -5
v 18 0 2
v 18 0 1
v 18 0 -1
v 18 0 -2
v 18 18 1
v 18 18 -1
v 18 19 3
v 18 19 2
v 18 19 -2
v 18 19 -3
v 18 20 3
v 18 20 -3
v 18 21 4
v 18 21 3
v 18 21 -3
v 18 21 -4
v 18 22 4
v 18 22 -4
v -17 21 5
v -17 22 5
v 17 21 5
v 17 22 5
v -18 21 4
v -18 22 4
v -17 20 4
v -17 21 4
v -17 22 4
v 17 20 4
v 17 21 4
v 17 22 4
v 18 21 4
v 18 22 4
v -18 19 3
v -18 20 3
v -18 21 3
v -17 0 3
v -17 19 3
v -17 20 3
v -17 21 3
v -16 0 3
v -16 9 3
v -16 10 3
v -16 13 3
v -16 14 3
v -16 18 3
v -16 22 3
v -16 23 3
v -12 5 3
v -12 6 3
v -11 15 3
v -11 17 3
v -10 15 3
v -10 17 3
v -9 9 3
v -9 10 3
v -9 13 3
v -8 8 3
v -8 9 3
v -8 10 3
v -8 13 3
v -7 2 3
v -7 3 3
v -7 5 3
v -7 6 3
v -2 14 3
v -2 17 3
v -1 14 3
v -1 17 3
v 3 2 3
v 3 3 3
v 5 10 3
v 5 13 3
v 6 10 3
v 6 13 3
v 6 15 3
v 6 18 3
v 7 15 3
v 7 18 3
v 8 2 3
v 8 6 3
v 9 2 3
v 9 5 3
v 16 0 3
v 16 5 3
v 16 6 3
v 16 8 3
v 16 9 3
v 16 13 3
v 16 14 3
v 16 18 3
v 16 22 3
v 16 23 3
v 17 0 3
v 17 19 3
v 17 20 3
v 17 21 3
v 18 19 3
v 18 20 3
v 18 21 3
v -18 0 2
v -18 19 2
v -17 0 2
v -17 19 2
v 17 0 2
v 17 19 2
v 18 0 2
v 18 19 2
v -18 0 -2
v -18 19 -2
v -17 0 -2
v -17 19 -2
v 17 0 -2
v 17 19 -2
v 18 0 -2
v 18 19 -2
v -18 19 -3
v -18 20 -3
v -18 21 -3
v -17 0 -3
v -17 19 -3
v -17 20 -3
v -17 21 -3
v -16 0 -3
v -16 5 -3
v -16 6 -3
v -16 9 -3
v -16 10 -3
v -16 14 -3
v -16 15 -3
v -16 18 -3
v -16 22 -3
v -16 23 -3
v -13 5 -3
v -13 6 -3
v -12 15 -3
v -12 18 -3
v -11 15 -3
v -11 18 -3
v -10 5 -3
v -10 6 -3
v -9 2 -3
v -9 5 -3
v -8 2 -3
v -8 5 -3
v -3 9 -3
v -3 10 -3
v -3 15 -3
v -3 18 -3
v -2 15 -3
v -2 18 -3
v 0 5 -3
v 0 6 -3
v 1 2 -3
v 1 5 -3
v 2 2 -3
v 2 5 -3
v 2 6 -3
v 2 11 -3
v 2 12 -3
v 3 14 -3
v 3 15 -3
v 8 6 -3
v 8 9 -3
v 9 1 -3
v 9 5 -3
v 9 6 -3
v 9 9 -3
v 9 10 -3
v 10 1 -3
v 10 5 -3
v 10 11 -3
v 10 12 -3
v 11 14 -3
v 11 15 -3
v 16 0 -3
v 16 5 -3
v 16 6 -3
v 16 9 -3
v 16 10 -3
v 16 14 -3
v 16 15 -3
v 16 18 -3
v 16 22 -3
v 16 23 -3
v 17 0 -3
v 17 19 -3
v 17 20 -3
v 17 21 -3
v 18 19 -3
v 18 20 -3
v 18 21 -3
v -18 21 -4
v -18 22 -4
v -17 20 -4
v -17 21 -4
v -17 22 -4
v 17 20 -4
v 17 21 -4
v 17 22 -4
v 18 21 -4
v 18 22 -4
v -17 21 -5
v -17 22 -5
v 17 21 -5
v 17 22 -5
v -17 0 3
v -16 0 3
v 16 0 3
v 17 0 3
v -18 0 2
v -17 0 2
v 17 0 2
v 18 0 2
v -18 0 1
v -16 0 1
v 16 0 1
v 18 0 1
v -18 0 -1
v -16 0 -1
v 16 0 -1
v 18 0 -1
v -18 0 -2
v -17 0 -2
v 17 0 -2
v 18 0 -2
v -17 0 -3
v -16 0 -3
v 16 0 -3
v 17 0 -3
v -18 19 3
v -17 19 3
v 17 19 3
v 18 19 3
v -18 19 2
v -17 19 2
v 17 19 2
v 18 19 2
v -18 19 -2
v -17 19 -2
v 17 19 -2
v 18 19 -2
v -18 19 -3
v -17 19 -3
v 17 19 -3
v 18 19 -3
v -17 20 4
v 17 20 4
v -17 20 3
v 17 20 3
v -17 20 -3
v 17 20 -3
v -17 20 -4
v 17 20 -4
v -17 21 5
v 17 21 5
v -18 21 4
v -17 21 4
v 17 21 4
v 18 21 4
v -18 21 3
v -17 21 3
v 17 21 3
v 18 21 3
v -18 21 -3
v -17 21 -3
v 17 21 -3
v 18 21 -3
v -18 21 -4
v -17 21 -4
v 17 21 -4
v 18 21 -4
v -17 21 -5
v 17 21 -5
v -17 22 5
v 17 22 5
v -18 22 4
v -17 22 4
v 17 22 4
v 18 22 4
v -16 22 3
v 16 22 3
v -16 22 -3
v 16 22 -3
v -18 22 -4
v -17 22 -4
v 17 22 -4
v 18 22 -4
v -17 22 -5
v 17 22 -5
v -16 23 3
v 16 23 3
v -16 23 -3
v 16 23 -3

# faces
f 5/2/1 2/2/1 1/2/1
f 5/1/1 3/1/1 2/1/1
f 6/2/1 4/2/1 3/2/1
f 6/1/1 3/1/1 5/1/1
f 8/2/1 5/2/1 1/2/1
f 8/2/1 6/2/1 5/2/1
f 9/2/1 4/2/1 6/2/1
f 9/2/1 6/2/1 8/2/1
f 11/1/1 8/1/1 7/1/1
f 11/1/1 10/1/1 9/1/1
f 11/1/1 9/1/1 8/1/1
f 12/1/1 10/1/1 11/1/1
f 14/2/1 12/2/1 11/2/1
f 15/2/1 12/2/1 14/2/1
f 17/1/1 15/1/1 14/1/1
f 17/1/1 16/1/1 15/1/1
f 17/1/1 14/1/1 13/1/1
f 18/1/1 16/1/1 17/1/1
f 23/2/1 20/2/1 19/2/1
f 24/2/1 20/2/1 23/2/1
f 25/2/1 22/2/1 21/2/1
f 26/2/1 22/2/1 25/2/1
f 32/2/1 28/2/1 27/2/1
f 33/2/1 28/2/1 32/2/1
f 34/2/1 30/2/1 29/2/1
f 35/2/1 30/2/1 34/2/1
f 37/1/1 32/1/1 31/1/1
f 38/1/1 32/1/1 37/1/1
f 39/1/1 36/1/1 35/1/1
f 40/1/1 36/1/1 39/1/1
f 43/2/1 42/2/1 41/2/1
f 44/2/1 42/2/1 43/2/1
f 45/2/2 46/2/2 47/2/2
f 47/2/2 46/2/2 48/2/2
f 49/2/2 50/2/2 53/2/2
f 53/2/2 50/2/2 54/2/2
f 51/2/2 52/2/2 55/2/2
f 55/2/2 52/2/2 56/2/2
f 57/2/2 58/2/2 62/2/2
f 62/2/2 58/2/2 63/2/2
f 59/2/2 60/2/2 64/2/2
f 64/2/2 60/2/2 65/2/2
f 61/1/2 62/1/2 67/1/2
f 67/1/2 62/1/2 68/1/2
f 65/1/2 66/1/2 69/1/2
f 69/1/2 66/1/2 70/1/2
f 71/2/2 72/2/2 75/2/2
f 72/1/2 73/1/2 75/1/2
f 73/2/2 74/2/2 76/2/2
f 75/1/2 73/1/2 76/1/2
f 71/2/2 75/2/2 78/2/2
f 75/2/2 76/2/2 78/2/2
f 76/2/2 74/2/2 79/2/2
f 78/2/2 76/2/2 79/2/2
f 77/1/2 78/1/2 81/1/2
f 79/1/2 80/1/2 81/1/2
f 78/1/2 79/1/2 81/1/2
f 81/1/2 80/1/2 82/1/2
f 81/2/2 82/2/2 84/2/2
f 84/2/2 82/2/2 85/2/2
f 84/1/2 85/1/2 87/1/2
f 85/1/2 86/1/2 87/1/2
f 83/1/2 84/1/2 87/1/2
f 87/1/2 86/1/2 88/1/2
f 91/1/3 90/1/3 89/1/3
f 92/1/3 90/1/3 91/1/3
f 96/1/3 94/1/3 93/1/3
f 97/1/3 94/1/3 96/1/3
f 98/2/3 96/2/3 95/2/3
f 99/2/3 96/2/3 98/2/3
f 101/1/3 100/1/3 99/1/3
f 102/1/3 100/1/3 101/1/3
f 107/1/3 104/1/3 103/1/3
f 108/2/3 105/2/3 104/2/3
f 108/1/3 104/1/3 107/1/3
f 109/2/3 105/2/3 108/2/3
f 110/2/3 107/2/3 106/2/3
f 111/2/3 107/2/3 110/2/3
f 112/2/3 107/2/3 111/2/3
f 113/2/3 107/2/3 112/2/3
f 114/2/3 107/2/3 113/2/3
f 115/2/3 107/2/3 114/2/3
f 118/1/3 111/1/3 110/1/3
f 119/1/3 111/1/3 118/1/3
f 120/1/3 115/1/3 114/1/3
f 121/1/3 115/1/3 120/1/3
f 122/1/3 120/1/3 114/1/3
f 122/2/3 121/2/3 120/2/3
f 123/1/3 115/1/3 121/1/3
f 123/2/3 121/2/3 122/2/3
f 124/2/3 112/2/3 111/2/3
f 124/1/3 111/1/3 119/1/3
f 125/1/3 113/1/3 112/1/3
f 125/2/3 112/2/3 124/2/3
f 126/2/3 114/2/3 113/2/3
f 126/1/3 113/1/3 125/1/3
f 127/1/3 124/1/3 119/1/3
f 127/1/3 125/1/3 124/1/3
f 128/1/3 125/1/3 127/1/3
f 129/2/3 126/2/3 125/2/3
f 129/1/3 125/1/3 128/1/3
f 130/2/3 114/2/3 126/2/3
f 130/2/3 126/2/3 129/2/3
f 131/1/3 118/1/3 110/1/3
f 132/1/3 118/1/3 131/1/3
f 133/2/3 119/2/3 118/2/3
f 133/1/3 118/1/3 132/1/3
f 134/1/3 127/1/3 119/1/3
f 134/2/3 119/2/3 133/2/3
f 135/1/3 123/1/3 122/1/3
f 135/2/3 114/2/3 130/2/3
f 135/1/3 122/1/3 114/1/3
f 136/1/3 115/1/3 123/1/3
f 136/1/3 123/1/3 135/1/3
f 137/2/3 135/2/3 130/2/3
f 137/2/3 136/2/3 135/2/3
f 138/1/3 115/1/3 136/1/3
f 138/2/3 136/2/3 137/2/3
f 139/2/3 132/2/3 131/2/3
f 139/1/3 131/1/3 110/1/3
f 140/1/3 134/1/3 133/1/3
f 140/2/3 132/2/3 139/2/3
f 140/1/3 133/1/3 132/1/3
f 141/1/3 129/1/3 128/1/3
f 141/1/3 130/1/3 129/1/3
f 142/2/3 137/2/3 130/2/3
f 142/1/3 130/1/3 141/1/3
f 143/1/3 141/1/3 128/1/3
f 143/2/3 142/2/3 141/2/3
f 144/2/3 137/2/3 142/2/3
f 144/2/3 142/2/3 143/2/3
f 145/1/3 138/1/3 137/1/3
f 146/2/3 107/2/3 115/2/3
f 146/1/3 138/1/3 145/1/3
f 146/1/3 115/1/3 138/1/3
f 147/1/3 145/1/3 137/1/3
f 147/2/3 146/2/3 145/2/3
f 148/2/3 107/2/3 146/2/3
f 148/2/3 146/2/3 147/2/3
f 149/1/3 139/1/3 110/1/3
f 149/1/3 140/1/3 139/1/3
f 150/1/3 134/1/3 140/1/3
f 150/1/3 140/1/3 149/1/3
f 150/1/3 127/1/3 134/1/3
f 151/1/3 149/1/3 110/1/3
f 151/2/3 150/2/3 149/2/3
f 152/2/3 150/2/3 151/2/3
f 153/1/3 151/1/3 110/1/3
f 153/1/3 152/1/3 151/1/3
f 154/2/3 150/2/3 152/2/3
f 154/1/3 152/1/3 153/1/3
f 155/1/3 127/1/3 150/1/3
f 155/2/3 150/2/3 154/2/3
f 156/2/3 128/2/3 127/2/3
f 156/1/3 127/1/3 155/1/3
f 157/1/3 143/1/3 128/1/3
f 157/2/3 128/2/3 156/2/3
f 157/1/3 144/1/3 143/1/3
f 158/2/3 137/2/3 144/2/3
f 158/1/3 144/1/3 157/1/3
f 159/1/3 147/1/3 137/1/3
f 159/2/3 137/2/3 158/2/3
f 159/1/3 148/1/3 147/1/3
f 160/2/3 107/2/3 148/2/3
f 160/1/3 148/1/3 159/1/3
f 161/2/3 117/2/3 116/2/3
f 162/2/3 117/2/3 161/2/3
f 163/2/3 158/2/3 157/2/3
f 163/2/3 156/2/3 155/2/3
f 163/2/3 154/2/3 153/2/3
f 163/2/3 160/2/3 159/2/3
f 163/2/3 155/2/3 154/2/3
f 163/2/3 159/2/3 158/2/3
f 163/2/3 157/2/3 156/2/3
f 164/1/3 108/1/3 107/1/3
f 164/2/3 160/2/3 163/2/3
f 164/2/3 107/2/3 160/2/3
f 165/1/3 108/1/3 164/1/3
f 167/1/3 165/1/3 164/1/3
f 168/2/3 166/2/3 165/2/3
f 168/1/3 165/1/3 167/1/3
f 169/2/3 166/2/3 168/2/3
f 172/2/3 171/2/3 170/2/3
f 173/2/3 171/2/3 172/2/3
f 176/2/3 175/2/3 174/2/3
f 177/2/3 175/2/3 176/2/3
f 178/2/4 179/2/4 180/2/4
f 180/2/4 179/2/4 181/2/4
f 182/2/4 183/2/4 184/2/4
f 184/2/4 183/2/4 185/2/4
f 186/1/4 187/1/4 190/1/4
f 187/2/4 188/2/4 191/2/4
f 190/1/4 187/1/4 191/1/4
f 191/2/4 188/2/4 192/2/4
f 189/2/4 190/2/4 193/2/4
f 193/2/4 190/2/4 194/2/4
f 194/2/4 190/2/4 195/2/4
f 195/2/4 190/2/4 196/2/4
f 196/2/4 190/2/4 197/2/4
f 197/2/4 190/2/4 198/2/4
f 198/2/4 190/2/4 199/2/4
f 199/2/4 190/2/4 200/2/4
f 193/1/4 194/1/4 203/1/4
f 194/2/4 195/2/4 203/2/4
f 195/1/4 196/1/4 204/1/4
f 203/2/4 195/2/4 204/2/4
f 199/1/4 200/1/4 205/1/4
f 198/2/4 199/2/4 205/2/4
f 200/2/4 190/2/4 206/2/4
f 205/1/4 200/1/4 206/1/4
f 198/2/4 205/2/4 207/2/4
f 205/2/4 206/2/4 207/2/4
f 206/2/4 190/2/4 208/2/4
f 207/2/4 206/2/4 208/2/4
f 193/1/4 203/1/4 209/1/4
f 203/1/4 204/1/4 209/1/4
f 204/1/4 196/1/4 210/1/4
f 209/1/4 204/1/4 210/1/4
f 193/1/4 209/1/4 211/1/4
f 209/2/4 210/2/4 212/2/4
f 211/1/4 209/1/4 212/1/4
f 193/1/4 211/1/4 213/1/4
f 211/2/4 212/2/4 213/2/4
f 212/2/4 210/2/4 214/2/4
f 213/2/4 212/2/4 214/2/4
f 210/1/4 196/1/4 215/1/4
f 196/2/4 197/2/4 215/2/4
f 197/1/4 198/1/4 216/1/4
f 215/2/4 197/2/4 216/2/4
f 198/2/4 207/2/4 217/2/4
f 207/1/4 208/1/4 217/1/4
f 208/2/4 190/2/4 218/2/4
f 217/1/4 208/1/4 218/1/4
f 198/2/4 217/2/4 219/2/4
f 217/2/4 218/2/4 219/2/4
f 218/2/4 190/2/4 220/2/4
f 219/2/4 218/2/4 220/2/4
f 214/2/4 210/2/4 221/2/4
f 213/1/4 214/1/4 221/1/4
f 210/1/4 215/1/4 222/1/4
f 221/2/4 210/2/4 222/2/4
f 215/1/4 216/1/4 222/1/4
f 213/1/4 221/1/4 223/1/4
f 193/1/4 213/1/4 223/1/4
f 221/1/4 222/1/4 223/1/4
f 223/1/4 222/1/4 224/1/4
f 193/1/4 223/1/4 225/1/4
f 223/2/4 224/2/4 225/2/4
f 224/1/4 222/1/4 226/1/4
f 225/2/4 224/2/4 226/2/4
f 222/1/4 216/1/4 227/1/4
f 226/1/4 222/1/4 227/1/4
f 216/1/4 198/1/4 228/1/4
f 227/1/4 216/1/4 228/1/4
f 228/1/4 198/1/4 229/1/4
f 198/2/4 219/2/4 230/2/4
f 229/1/4 198/1/4 230/1/4
f 219/1/4 220/1/4 231/1/4
f 230/2/4 219/2/4 231/2/4
f 226/2/4 227/2/4 232/2/4
f 227/1/4 228/1/4 232/1/4
f 232/1/4 228/1/4 233/1/4
f 225/1/4 226/1/4 234/1/4
f 193/1/4 225/1/4 234/1/4
f 232/2/4 233/2/4 235/2/4
f 234/1/4 226/1/4 235/1/4
f 226/2/4 232/2/4 235/2/4
f 235/2/4 233/2/4 236/2/4
f 233/1/4 228/1/4 237/1/4
f 236/2/4 233/2/4 237/2/4
f 237/1/4 228/1/4 238/1/4
f 235/2/4 236/2/4 239/2/4
f 193/1/4 234/1/4 239/1/4
f 234/2/4 235/2/4 239/2/4
f 239/2/4 236/2/4 240/2/4
f 228/2/4 229/2/4 241/2/4
f 238/1/4 228/1/4 241/1/4
f 229/1/4 230/1/4 242/1/4
f 241/2/4 229/2/4 242/2/4
f 230/1/4 231/1/4 242/1/4
f 241/1/4 242/1/4 243/1/4
f 242/1/4 231/1/4 243/1/4
f 231/1/4 220/1/4 244/1/4
f 243/1/4 231/1/4 244/1/4
f 239/1/4 240/1/4 245/1/4
f 193/1/4 239/1/4 245/1/4
f 240/2/4 236/2/4 246/2/4
f 245/1/4 240/1/4 246/1/4
f 236/1/4 237/1/4 247/1/4
f 246/2/4 236/2/4 247/2/4
f 237/2/4 238/2/4 248/2/4
f 247/1/4 237/1/4 248/1/4
f 241/1/4 243/1/4 249/1/4
f 248/2/4 238/2/4 249/2/4
f 238/1/4 241/1/4 249/1/4
f 243/2/4 244/2/4 250/2/4
f 249/1/4 243/1/4 250/1/4
f 244/1/4 220/1/4 251/1/4
f 250/2/4 244/2/4 251/2/4
f 220/2/4 190/2/4 252/2/4
f 251/1/4 220/1/4 252/1/4
f 201/2/4 202/2/4 253/2/4
f 253/2/4 202/2/4 254/2/4
f 247/2/4 248/2/4 255/2/4
f 250/2/4 251/2/4 255/2/4
f 245/2/4 246/2/4 255/2/4
f 251/2/4 252/2/4 255/2/4
f 248/2/4 249/2/4 255/2/4
f 246/2/4 247/2/4 255/2/4
f 249/2/4 250/2/4 255/2/4
f 190/1/4 191/1/4 256/1/4
f 255/2/4 252/2/4 256/2/4
f 252/2/4 190/2/4 256/2/4
f 256/1/4 191/1/4 257/1/4
f 256/1/4 257/1/4 259/1/4
f 257/2/4 258/2/4 260/2/4
f 259/1/4 257/1/4 260/1/4
f 260/2/4 258/2/4 261/2/4
f 262/1/4 263/1/4 265/1/4
f 265/1/4 263/1/4 266/1/4
f 264/2/4 265/2/4 267/2/4
f 267/2/4 265/2/4 268/2/4
f 268/1/4 269/1/4 270/1/4
f 270/1/4 269/1/4 271/1/4
f 272/1/4 273/1/4 274/1/4
f 274/1/4 273/1/4 275/1/4
f 281/2/5 277/2/5 276/2/5
f 282/2/5 279/2/5 278/2/5
f 284/2/5 281/2/5 280/2/5
f 285/1/5 278/1/5 277/1/5
f 285/2/5 281/2/5 284/2/5
f 285/2/5 277/2/5 281/2/5
f 286/2/5 283/2/5 282/2/5
f 286/1/5 278/1/5 285/1/5
f 286/2/5 282/2/5 278/2/5
f 287/2/5 283/2/5 286/2/5
f 288/1/5 285/1/5 284/1/5
f 288/1/5 286/1/5 285/1/5
f 288/1/5 287/1/5 286/1/5
f 289/1/5 287/1/5 288/1/5
f 290/1/5 287/1/5 289/1/5
f 291/1/5 287/1/5 290/1/5
f 292/2/5 289/2/5 288/2/5
f 293/2/5 289/2/5 292/2/5
f 294/2/5 291/2/5 290/2/5
f 295/2/5 291/2/5 294/2/5
f 296/2/5 289/2/5 293/2/5
f 297/1/5 290/1/5 289/1/5
f 297/2/5 289/2/5 296/2/5
f 298/2/5 294/2/5 290/2/5
f 298/1/5 290/1/5 297/1/5
f 299/2/5 294/2/5 298/2/5
f 304/1/5 301/1/5 300/1/5
f 305/1/5 301/1/5 304/1/5
f 306/1/5 303/1/5 302/1/5
f 307/1/5 303/1/5 306/1/5
f 312/1/5 309/1/5 308/1/5
f 313/1/5 309/1/5 312/1/5
f 314/1/5 311/1/5 310/1/5
f 315/1/5 311/1/5 314/1/5
f 318/2/5 317/2/5 316/2/5
f 319/2/5 317/2/5 318/2/5
f 322/2/5 321/2/5 320/2/5
f 323/2/5 321/2/5 322/2/5
f 327/1/5 325/1/5 324/1/5
f 328/1/5 325/1/5 327/1/5
f 330/1/5 327/1/5 326/1/5
f 331/1/5 327/1/5 330/1/5
f 332/1/5 329/1/5 328/1/5
f 333/1/5 329/1/5 332/1/5
f 338/1/5 335/1/5 334/1/5
f 339/1/5 335/1/5 338/1/5
f 340/1/5 337/1/5 336/1/5
f 341/1/5 337/1/5 340/1/5
f 342/1/5 340/1/5 339/1/5
f 343/1/5 340/1/5 342/1/5
f 344/1/6 345/1/6 347/1/6
f 347/1/6 345/1/6 348/1/6
f 346/1/6 347/1/6 350/1/6
f 348/1/6 349/1/6 350/1/6
f 347/1/6 348/1/6 350/1/6
f 350/1/6 349/1/6 351/1/6
f 346/1/6 350/1/6 352/1/6
f 351/1/6 349/1/6 353/1/6
f 346/1/6 352/1/6 354/1/6
f 352/1/6 353/1/6 354/1/6
f 354/1/6 353/1/6 355/1/6
f 353/1/6 349/1/6 356/1/6
f 355/1/6 353/1/6 356/1/6
f 356/1/6 349/1/6 357/1/6
f 355/1/6 356/1/6 358/1/6
f 358/1/6 356/1/6 359/1/6
f 360/2/6 361/2/6 362/2/6
f 362/2/6 361/2/6 363/2/6
