# MagicaVoxel @ Ephtracy

# group
g Tree2

# material
mtllib Tree2.mtl
usemtl palette

# normals
vn -1 0 0
vn 1 0 0
vn 0 0 1
vn 0 0 -1
vn 0 -1 0
vn 0 1 0

# texcoords
vt 0.888672 0.5
vt 0.900391 0.5

# verts
v -6 11 6
v -6 11 -2
v -6 11 -3
v -6 11 -5
v -6 12 4
v -6 12 3
v -6 12 -1
v -6 12 -2
v -6 12 -3
v -6 13 -2
v -6 13 -3
v -6 15 -1
v -6 15 -2
v -6 17 4
v -6 17 3
v -6 20 -2
v -6 20 -3
v -6 23 6
v -6 23 -5
v -5 11 -2
v -5 11 -3
v -5 11 -5
v -5 11 -6
v -5 12 4
v -5 12 3
v -5 12 -1
v -5 12 -2
v -5 12 -3
v -5 13 -2
v -5 13 -3
v -5 15 -1
v -5 15 -2
v -5 17 4
v -5 17 3
v -5 20 -2
v -5 20 -3
v -5 23 -5
v -5 23 -6
v -4 9 5
v -4 9 4
v -4 11 5
v -4 11 4
v -3 8 -4
v -3 8 -5
v -3 11 6
v -3 11 5
v -3 11 -4
v -3 11 -5
v -3 19 6
v -3 19 5
v -1 0 1
v -1 0 -1
v -1 11 1
v -1 11 -1
v -1 11 -5
v -1 11 -6
v -1 18 -5
v -1 18 -6
v 2 14 6
v 2 14 5
v 2 16 6
v 2 16 5
v 3 16 6
v 3 16 5
v 3 21 6
v 3 21 5
v 4 6 4
v 4 6 3
v 4 9 5
v 4 9 4
v 4 9 2
v 4 9 1
v 4 11 5
v 4 11 3
v 4 11 2
v 4 11 1
v -4 11 6
v -4 11 5
v -4 19 6
v -4 19 5
v -3 9 5
v -3 9 4
v -3 11 5
v -3 11 4
v -3 11 -5
v -3 11 -6
v -3 18 -5
v -3 18 -6
v -2 8 -4
v -2 8 -5
v -2 9 -4
v -2 9 -5
v -1 9 -4
v -1 9 -5
v -1 11 -4
v -1 11 -5
v 0 3 1
v 0 3 -0
v 0 11 1
v 0 11 -0
v 1 0 1
v 1 0 -1
v 1 3 1
v 1 3 -0
v 1 11 -0
v 1 11 -1
v 1 14 6
v 1 14 5
v 1 17 6
v 1 17 5
v 2 17 6
v 2 17 5
v 2 21 6
v 2 21 5
v 5 6 4
v 5 6 3
v 5 9 5
v 5 9 4
v 5 9 2
v 5 9 1
v 5 11 6
v 5 11 5
v 5 11 4
v 5 11 3
v 5 11 2
v 5 11 1
v 5 15 1
v 5 15 -0
v 5 16 2
v 5 16 1
v 5 18 4
v 5 18 3
v 5 20 1
v 5 20 -0
v 5 22 3
v 5 22 2
v 5 23 6
v 5 23 2
v 6 11 4
v 6 11 2
v 6 11 1
v 6 11 -6
v 6 15 1
v 6 15 -0
v 6 16 2
v 6 16 1
v 6 18 4
v 6 18 3
v 6 20 1
v 6 20 -0
v 6 22 3
v 6 22 2
v 6 23 2
v 6 23 -6
v -6 11 6
v -6 23 6
v -4 11 6
v -4 19 6
v -3 11 6
v -3 19 6
v 1 14 6
v 1 17 6
v 2 14 6
v 2 16 6
v 2 17 6
v 2 21 6
v 3 16 6
v 3 21 6
v 5 11 6
v 5 23 6
v -4 9 5
v -4 11 5
v -4 19 5
v -3 9 5
v -3 11 5
v -3 19 5
v 1 14 5
v 1 17 5
v 2 14 5
v 2 16 5
v 2 17 5
v 2 21 5
v 3 16 5
v 3 21 5
v 4 9 5
v 4 11 5
v 5 9 5
v 5 11 5
v 4 6 4
v 4 9 4
v 5 6 4
v 5 9 4
v 5 11 4
v 5 18 4
v 6 11 4
v 6 18 4
v -6 12 3
v -6 17 3
v -5 12 3
v -5 17 3
v 5 18 3
v 5 22 3
v 6 18 3
v 6 22 3
v 4 9 2
v 4 11 2
v 5 9 2
v 5 11 2
v 5 22 2
v 5 23 2
v 6 22 2
v 6 23 2
v -1 0 1
v -1 11 1
v 0 3 1
v 0 11 1
v 1 0 1
v 1 3 1
v 5 11 1
v 5 15 1
v 6 11 1
v 6 15 1
v 0 3 -0
v 0 11 -0
v 1 3 -0
v 1 11 -0
v 5 15 -0
v 5 20 -0
v 6 15 -0
v 6 20 -0
v -6 12 -2
v -6 13 -2
v -5 12 -2
v -5 13 -2
v -6 11 -3
v -6 12 -3
v -6 13 -3
v -6 20 -3
v -5 11 -3
v -5 12 -3
v -5 13 -3
v -5 20 -3
v -3 8 -4
v -3 11 -4
v -2 8 -4
v -2 9 -4
v -1 9 -4
v -1 11 -4
v -6 12 4
v -6 17 4
v -5 12 4
v -5 17 4
v -4 9 4
v -4 11 4
v -3 9 4
v -3 11 4
v 4 6 3
v 4 11 3
v 5 6 3
v 5 11 3
v 5 11 2
v 5 16 2
v 6 11 2
v 6 16 2
v 4 9 1
v 4 11 1
v 5 9 1
v 5 11 1
v 5 16 1
v 5 20 1
v 6 16 1
v 6 20 1
v -6 12 -1
v -6 15 -1
v -5 12 -1
v -5 15 -1
v -1 0 -1
v -1 11 -1
v 1 0 -1
v 1 11 -1
v -6 11 -2
v -6 12 -2
v -6 15 -2
v -6 20 -2
v -5 11 -2
v -5 12 -2
v -5 15 -2
v -5 20 -2
v -6 11 -5
v -6 23 -5
v -5 11 -5
v -5 23 -5
v -3 8 -5
v -3 11 -5
v -3 18 -5
v -2 8 -5
v -2 9 -5
v -1 9 -5
v -1 11 -5
v -1 18 -5
v -5 11 -6
v -5 23 -6
v -3 11 -6
v -3 18 -6
v -1 11 -6
v -1 18 -6
v 6 11 -6
v 6 23 -6
v -1 0 1
v 1 0 1
v -1 0 -1
v 1 0 -1
v 4 6 4
v 5 6 4
v 4 6 3
v 5 6 3
v -3 8 -4
v -2 8 -4
v -3 8 -5
v -2 8 -5
v -4 9 5
v -3 9 5
v 4 9 5
v 5 9 5
v -4 9 4
v -3 9 4
v 4 9 4
v 5 9 4
v 4 9 2
v 5 9 2
v 4 9 1
v 5 9 1
v -2 9 -4
v -1 9 -4
v -2 9 -5
v -1 9 -5
v -6 11 6
v -4 11 6
v -3 11 6
v 5 11 6
v -4 11 5
v -3 11 5
v 4 11 5
v 5 11 5
v -4 11 4
v -3 11 4
v 5 11 4
v 6 11 4
v 4 11 3
v 5 11 3
v 4 11 2
v 5 11 2
v 6 11 2
v -1 11 1
v 0 11 1
v 4 11 1
v 5 11 1
v 6 11 1
v 0 11 -0
v 1 11 -0
v -1 11 -1
v 1 11 -1
v -6 11 -2
v -5 11 -2
v -6 11 -3
v -5 11 -3
v -3 11 -4
v -1 11 -4
v -6 11 -5
v -5 11 -5
v -3 11 -5
v -1 11 -5
v -5 11 -6
v -3 11 -6
v -1 11 -6
v 6 11 -6
v -6 12 -2
v -5 12 -2
v -6 12 -3
v -5 12 -3
v -6 15 -1
v -5 15 -1
v -6 15 -2
v -5 15 -2
v 5 16 2
v 6 16 2
v 5 16 1
v 6 16 1
v 1 17 6
v 2 17 6
v 1 17 5
v 2 17 5
v -6 17 4
v -5 17 4
v -6 17 3
v -5 17 3
v -3 18 -5
v -1 18 -5
v -3 18 -6
v -1 18 -6
v -4 19 6
v -3 19 6
v -4 19 5
v -3 19 5
v 5 20 1
v 6 20 1
v 5 20 -0
v 6 20 -0
v -6 20 -2
v -5 20 -2
v -6 20 -3
v -5 20 -3
v 2 21 6
v 3 21 6
v 2 21 5
v 3 21 5
v 0 3 1
v 1 3 1
v 0 3 -0
v 1 3 -0
v -6 12 4
v -5 12 4
v -6 12 3
v -5 12 3
v -6 12 -1
v -5 12 -1
v -6 12 -2
v -5 12 -2
v -6 13 -2
v -5 13 -2
v -6 13 -3
v -5 13 -3
v 1 14 6
v 2 14 6
v 1 14 5
v 2 14 5
v 5 15 1
v 6 15 1
v 5 15 -0
v 6 15 -0
v 2 16 6
v 3 16 6
v 2 16 5
v 3 16 5
v 5 18 4
v 6 18 4
v 5 18 3
v 6 18 3
v 5 22 3
v 6 22 3
v 5 22 2
v 6 22 2
v -6 23 6
v 5 23 6
v 5 23 2
v 6 23 2
v -6 23 -5
v -5 23 -5
v -5 23 -6
v 6 23 -6

# faces
f 5/1/1 2/1/1 1/1/1
f 6/1/1 2/1/1 5/1/1
f 7/1/1 2/1/1 6/1/1
f 8/1/1 2/1/1 7/1/1
f 9/1/1 4/1/1 3/1/1
f 10/1/1 9/1/1 8/1/1
f 11/1/1 4/1/1 9/1/1
f 11/1/1 9/1/1 10/1/1
f 12/1/1 7/1/1 6/1/1
f 14/1/1 5/1/1 1/1/1
f 15/1/1 13/1/1 12/1/1
f 15/1/1 12/1/1 6/1/1
f 16/1/1 13/1/1 15/1/1
f 16/1/1 15/1/1 14/1/1
f 17/1/1 4/1/1 11/1/1
f 18/1/1 14/1/1 1/1/1
f 18/1/1 17/1/1 16/1/1
f 18/1/1 16/1/1 14/1/1
f 19/1/1 4/1/1 17/1/1
f 19/1/1 17/1/1 18/1/1
f 27/1/1 21/1/1 20/1/1
f 28/1/1 21/1/1 27/1/1
f 29/1/1 27/1/1 26/1/1
f 31/1/1 29/1/1 26/1/1
f 31/1/1 30/1/1 29/1/1
f 32/1/1 30/1/1 31/1/1
f 33/1/1 25/1/1 24/1/1
f 34/1/1 25/1/1 33/1/1
f 35/1/1 30/1/1 32/1/1
f 36/1/1 30/1/1 35/1/1
f 37/1/1 23/1/1 22/1/1
f 38/1/1 23/1/1 37/1/1
f 41/1/1 40/1/1 39/1/1
f 42/1/1 40/1/1 41/1/1
f 47/1/1 44/1/1 43/1/1
f 48/1/1 44/1/1 47/1/1
f 49/1/1 46/1/1 45/1/1
f 50/1/1 46/1/1 49/1/1
f 53/2/1 52/2/1 51/2/1
f 54/2/1 52/2/1 53/2/1
f 57/1/1 56/1/1 55/1/1
f 58/1/1 56/1/1 57/1/1
f 61/1/1 60/1/1 59/1/1
f 62/1/1 60/1/1 61/1/1
f 65/1/1 64/1/1 63/1/1
f 66/1/1 64/1/1 65/1/1
f 70/1/1 68/1/1 67/1/1
f 73/1/1 70/1/1 69/1/1
f 74/1/1 68/1/1 70/1/1
f 74/1/1 70/1/1 73/1/1
f 75/1/1 72/1/1 71/1/1
f 76/1/1 72/1/1 75/1/1
f 77/1/2 78/1/2 79/1/2
f 79/1/2 78/1/2 80/1/2
f 81/1/2 82/1/2 83/1/2
f 83/1/2 82/1/2 84/1/2
f 85/1/2 86/1/2 87/1/2
f 87/1/2 86/1/2 88/1/2
f 89/1/2 90/1/2 91/1/2
f 91/1/2 90/1/2 92/1/2
f 93/1/2 94/1/2 95/1/2
f 95/1/2 94/1/2 96/1/2
f 97/2/2 98/2/2 99/2/2
f 99/2/2 98/2/2 100/2/2
f 101/2/2 102/2/2 103/2/2
f 103/2/2 102/2/2 104/2/2
f 104/2/2 102/2/2 105/2/2
f 105/2/2 102/2/2 106/2/2
f 107/1/2 108/1/2 109/1/2
f 109/1/2 108/1/2 110/1/2
f 111/1/2 112/1/2 113/1/2
f 113/1/2 112/1/2 114/1/2
f 115/1/2 116/1/2 118/1/2
f 117/1/2 118/1/2 122/1/2
f 118/1/2 116/1/2 123/1/2
f 122/1/2 118/1/2 123/1/2
f 123/1/2 116/1/2 124/1/2
f 119/1/2 120/1/2 125/1/2
f 125/1/2 120/1/2 126/1/2
f 125/1/2 126/1/2 127/1/2
f 125/1/2 127/1/2 129/1/2
f 127/1/2 128/1/2 129/1/2
f 129/1/2 128/1/2 130/1/2
f 121/1/2 122/1/2 131/1/2
f 122/1/2 123/1/2 131/1/2
f 130/1/2 128/1/2 133/1/2
f 133/1/2 128/1/2 134/1/2
f 131/1/2 132/1/2 135/1/2
f 121/1/2 131/1/2 137/1/2
f 135/1/2 136/1/2 137/1/2
f 131/1/2 135/1/2 137/1/2
f 137/1/2 136/1/2 138/1/2
f 141/1/2 142/1/2 143/1/2
f 143/1/2 142/1/2 144/1/2
f 139/1/2 140/1/2 145/1/2
f 139/1/2 145/1/2 147/1/2
f 145/1/2 146/1/2 147/1/2
f 147/1/2 146/1/2 148/1/2
f 148/1/2 146/1/2 149/1/2
f 144/1/2 142/1/2 150/1/2
f 148/1/2 149/1/2 151/1/2
f 149/1/2 150/1/2 151/1/2
f 151/1/2 150/1/2 152/1/2
f 152/1/2 150/1/2 153/1/2
f 150/1/2 142/1/2 154/1/2
f 153/1/2 150/1/2 154/1/2
f 157/1/3 156/1/3 155/1/3
f 158/1/3 156/1/3 157/1/3
f 160/1/3 156/1/3 158/1/3
f 161/1/3 160/1/3 159/1/3
f 162/1/3 160/1/3 161/1/3
f 163/1/3 161/1/3 159/1/3
f 165/1/3 160/1/3 162/1/3
f 166/1/3 156/1/3 160/1/3
f 166/1/3 160/1/3 165/1/3
f 167/1/3 164/1/3 163/1/3
f 168/1/3 156/1/3 166/1/3
f 169/1/3 167/1/3 163/1/3
f 169/1/3 168/1/3 167/1/3
f 169/1/3 163/1/3 159/1/3
f 170/1/3 156/1/3 168/1/3
f 170/1/3 168/1/3 169/1/3
f 174/1/3 172/1/3 171/1/3
f 174/1/3 173/1/3 172/1/3
f 175/1/3 173/1/3 174/1/3
f 176/1/3 173/1/3 175/1/3
f 179/1/3 178/1/3 177/1/3
f 180/1/3 178/1/3 179/1/3
f 181/1/3 178/1/3 180/1/3
f 183/1/3 181/1/3 180/1/3
f 183/1/3 182/1/3 181/1/3
f 184/1/3 182/1/3 183/1/3
f 187/1/3 186/1/3 185/1/3
f 188/1/3 186/1/3 187/1/3
f 191/1/3 190/1/3 189/1/3
f 192/1/3 190/1/3 191/1/3
f 195/1/3 194/1/3 193/1/3
f 196/1/3 194/1/3 195/1/3
f 199/1/3 198/1/3 197/1/3
f 200/1/3 198/1/3 199/1/3
f 203/1/3 202/1/3 201/1/3
f 204/1/3 202/1/3 203/1/3
f 207/1/3 206/1/3 205/1/3
f 208/1/3 206/1/3 207/1/3
f 211/1/3 210/1/3 209/1/3
f 212/1/3 210/1/3 211/1/3
f 215/2/3 214/2/3 213/2/3
f 216/2/3 214/2/3 215/2/3
f 217/2/3 215/2/3 213/2/3
f 218/2/3 215/2/3 217/2/3
f 221/1/3 220/1/3 219/1/3
f 222/1/3 220/1/3 221/1/3
f 225/2/3 224/2/3 223/2/3
f 226/2/3 224/2/3 225/2/3
f 229/1/3 228/1/3 227/1/3
f 230/1/3 228/1/3 229/1/3
f 233/1/3 232/1/3 231/1/3
f 234/1/3 232/1/3 233/1/3
f 239/1/3 236/1/3 235/1/3
f 240/1/3 236/1/3 239/1/3
f 241/1/3 238/1/3 237/1/3
f 242/1/3 238/1/3 241/1/3
f 245/1/3 244/1/3 243/1/3
f 246/1/3 244/1/3 245/1/3
f 247/1/3 244/1/3 246/1/3
f 248/1/3 244/1/3 247/1/3
f 249/1/4 250/1/4 251/1/4
f 251/1/4 250/1/4 252/1/4
f 253/1/4 254/1/4 255/1/4
f 255/1/4 254/1/4 256/1/4
f 257/1/4 258/1/4 259/1/4
f 259/1/4 258/1/4 260/1/4
f 261/1/4 262/1/4 263/1/4
f 263/1/4 262/1/4 264/1/4
f 265/1/4 266/1/4 267/1/4
f 267/1/4 266/1/4 268/1/4
f 269/1/4 270/1/4 271/1/4
f 271/1/4 270/1/4 272/1/4
f 273/1/4 274/1/4 275/1/4
f 275/1/4 274/1/4 276/1/4
f 277/2/4 278/2/4 279/2/4
f 279/2/4 278/2/4 280/2/4
f 281/1/4 282/1/4 285/1/4
f 285/1/4 282/1/4 286/1/4
f 283/1/4 284/1/4 287/1/4
f 287/1/4 284/1/4 288/1/4
f 289/1/4 290/1/4 291/1/4
f 291/1/4 290/1/4 292/1/4
f 293/1/4 294/1/4 296/1/4
f 294/1/4 295/1/4 296/1/4
f 296/1/4 295/1/4 297/1/4
f 297/1/4 295/1/4 298/1/4
f 298/1/4 295/1/4 299/1/4
f 299/1/4 295/1/4 300/1/4
f 301/1/4 302/1/4 303/1/4
f 303/1/4 302/1/4 304/1/4
f 304/1/4 302/1/4 306/1/4
f 305/1/4 306/1/4 307/1/4
f 306/1/4 302/1/4 308/1/4
f 307/1/4 306/1/4 308/1/4
f 311/2/5 310/2/5 309/2/5
f 312/2/5 310/2/5 311/2/5
f 315/1/5 314/1/5 313/1/5
f 316/1/5 314/1/5 315/1/5
f 319/1/5 318/1/5 317/1/5
f 320/1/5 318/1/5 319/1/5
f 325/1/5 322/1/5 321/1/5
f 326/1/5 322/1/5 325/1/5
f 327/1/5 324/1/5 323/1/5
f 328/1/5 324/1/5 327/1/5
f 331/1/5 330/1/5 329/1/5
f 332/1/5 330/1/5 331/1/5
f 335/1/5 334/1/5 333/1/5
f 336/1/5 334/1/5 335/1/5
f 341/1/5 338/1/5 337/1/5
f 342/1/5 340/1/5 339/1/5
f 343/1/5 340/1/5 342/1/5
f 344/1/5 340/1/5 343/1/5
f 345/1/5 341/1/5 337/1/5
f 346/1/5 343/1/5 342/1/5
f 349/1/5 346/1/5 345/1/5
f 349/1/5 343/1/5 346/1/5
f 350/1/5 348/1/5 347/1/5
f 351/1/5 349/1/5 345/1/5
f 351/1/5 350/1/5 349/1/5
f 352/1/5 348/1/5 350/1/5
f 352/1/5 350/1/5 351/1/5
f 353/1/5 348/1/5 352/1/5
f 354/1/5 351/1/5 345/1/5
f 355/1/5 351/1/5 354/1/5
f 356/1/5 351/1/5 355/1/5
f 359/1/5 358/1/5 357/1/5
f 359/1/5 357/1/5 356/1/5
f 359/1/5 356/1/5 355/1/5
f 360/1/5 358/1/5 359/1/5
f 361/1/5 354/1/5 345/1/5
f 362/1/5 358/1/5 360/1/5
f 363/1/5 345/1/5 337/1/5
f 363/1/5 362/1/5 361/1/5
f 363/1/5 361/1/5 345/1/5
f 364/1/5 362/1/5 363/1/5
f 366/1/5 362/1/5 364/1/5
f 367/1/5 362/1/5 366/1/5
f 367/1/5 366/1/5 365/1/5
f 368/1/5 362/1/5 367/1/5
f 369/1/5 367/1/5 365/1/5
f 370/1/5 367/1/5 369/1/5
f 371/1/5 367/1/5 370/1/5
f 372/1/5 362/1/5 368/1/5
f 373/1/5 371/1/5 370/1/5
f 374/1/5 371/1/5 373/1/5
f 375/1/5 362/1/5 372/1/5
f 376/1/5 358/1/5 362/1/5
f 376/1/5 362/1/5 375/1/5
f 379/1/5 378/1/5 377/1/5
f 380/1/5 378/1/5 379/1/5
f 383/1/5 382/1/5 381/1/5
f 384/1/5 382/1/5 383/1/5
f 387/1/5 386/1/5 385/1/5
f 388/1/5 386/1/5 387/1/5
f 391/1/5 390/1/5 389/1/5
f 392/1/5 390/1/5 391/1/5
f 395/1/5 394/1/5 393/1/5
f 396/1/5 394/1/5 395/1/5
f 399/1/5 398/1/5 397/1/5
f 400/1/5 398/1/5 399/1/5
f 403/1/5 402/1/5 401/1/5
f 404/1/5 402/1/5 403/1/5
f 407/1/5 406/1/5 405/1/5
f 408/1/5 406/1/5 407/1/5
f 411/1/5 410/1/5 409/1/5
f 412/1/5 410/1/5 411/1/5
f 415/1/5 414/1/5 413/1/5
f 416/1/5 414/1/5 415/1/5
f 417/2/6 418/2/6 419/2/6
f 419/2/6 418/2/6 420/2/6
f 421/1/6 422/1/6 423/1/6
f 423/1/6 422/1/6 424/1/6
f 425/1/6 426/1/6 427/1/6
f 427/1/6 426/1/6 428/1/6
f 429/1/6 430/1/6 431/1/6
f 431/1/6 430/1/6 432/1/6
f 433/1/6 434/1/6 435/1/6
f 435/1/6 434/1/6 436/1/6
f 437/1/6 438/1/6 439/1/6
f 439/1/6 438/1/6 440/1/6
f 441/1/6 442/1/6 443/1/6
f 443/1/6 442/1/6 444/1/6
f 445/1/6 446/1/6 447/1/6
f 447/1/6 446/1/6 448/1/6
f 449/1/6 450/1/6 451/1/6
f 451/1/6 450/1/6 452/1/6
f 453/1/6 454/1/6 455/1/6
f 453/1/6 455/1/6 457/1/6
f 455/1/6 456/1/6 457/1/6
f 457/1/6 456/1/6 458/1/6
f 458/1/6 456/1/6 459/1/6
f 459/1/6 456/1/6 460/1/6
