# MagicaVoxel @ Ephtracy

# group
g maneken

# material
mtllib maneken.mtl
usemtl palette

# normals
vn -1 0 0
vn 1 0 0
vn 0 0 1
vn 0 0 -1
vn 0 -1 0
vn 0 1 0

# texcoords
vt 0.306641 0.5
vt 0.939453 0.5
vt 0.943359 0.5
vt 0.947266 0.5
vt 0.951172 0.5
vt 0.970703 0.5
vt 0.974609 0.5
vt 0.978516 0.5
vt 0.982422 0.5
vt 0.986328 0.5
vt 0.990234 0.5
vt 0.994141 0.5

# verts
v -8 8 -0.5
v -8 8 -1.5
v -8 9 -0.5
v -8 9 -1.5
v -7 6 -0.5
v -7 6 -1.5
v -7 8 -0.5
v -7 8 -1.5
v -7 9 -0.5
v -7 9 -1.5
v -7 15 -0.5
v -7 15 -1.5
v -6 7 0.5
v -6 7 -0.5
v -6 8 0.5
v -6 8 -0.5
v -3 6 0.5
v -3 6 -0.5
v -3 7 0.5
v -3 7 -0.5
v -2 5 0.5
v -2 5 -1.5
v -2 6 0.5
v -2 6 -1.5
v -2 8 0.5
v -2 8 -0.5
v -2 8 -1.5
v -2 9 0.5
v -2 9 -1.5
v -2 10 0.5
v -2 10 -1.5
v -2 11 1.5
v -2 11 0.5
v -2 11 -0.5
v -2 11 -1.5
v -2 11 -2.5
v -2 12 0.5
v -2 12 -0.5
v -2 12 -1.5
v -2 12 -2.5
v -2 13 1.5
v -2 13 0.5
v -2 13 -0.5
v -2 13 -1.5
v -2 13 -2.5
v -2 14 0.5
v -2 14 -0.5
v -2 14 -1.5
v -1 0 0.5
v -1 0 -1.5
v -1 2 0.5
v -1 2 -0.5
v -1 3 -0.5
v -1 3 -1.5
v -1 5 1.5
v -1 5 0.5
v -1 5 -1.5
v -1 5 -2.5
v -1 6 1.5
v -1 6 0.5
v -1 6 -1.5
v -1 6 -2.5
v -1 8 1.5
v -1 8 0.5
v -1 8 -1.5
v -1 8 -2.5
v -1 9 1.5
v -1 9 0.5
v -1 9 -1.5
v -1 9 -2.5
v -1 10 1.5
v -1 10 0.5
v -1 10 -1.5
v -1 10 -2.5
v -1 11 1.5
v -1 11 0.5
v -1 11 -1.5
v -1 11 -2.5
v -1 13 1.5
v -1 13 0.5
v -1 13 -1.5
v -1 13 -2.5
v -1 14 1.5
v -1 14 0.5
v -1 14 -0.5
v -1 14 -1.5
v -1 14 -2.5
v -1 15 0.5
v -1 15 -1.5
v -1 16 -0.5
v -1 16 -1.5
v -1 18 -0.5
v -1 18 -1.5
v 0 15 0.5
v 0 15 -0.5
v 0 16 -0.5
v 0 17 0.5
v 0 17 -0.5
v 1 17 0.5
v 1 17 -1.5
v 1 18 0.5
v 1 18 -1.5
v 2 18 -0.5
v 2 18 -1.5
v 2 19 -0.5
v 2 19 -1.5
v 5 5 1.5
v 5 5 0.5
v 5 6 1.5
v 5 6 0.5
v 5 7 0.5
v 5 8 0.5
v 5 9 1.5
v 5 9 0.5
v 5 10 1.5
v 5 10 0.5
v 6 4 1.5
v 6 4 0.5
v 6 5 1.5
v 6 5 0.5
v -6 9 -0.5
v -6 9 -1.5
v -6 15 -0.5
v -6 15 -1.5
v -5 8 -0.5
v -5 8 -1.5
v -5 9 -0.5
v -5 9 -1.5
v 0 17 -0.5
v 0 17 -1.5
v 0 18 -0.5
v 0 18 -1.5
v 1 0 0.5
v 1 0 -1.5
v 1 1 -0.5
v 1 1 -1.5
v 1 5 1.5
v 1 5 0.5
v 1 5 -0.5
v 1 5 -1.5
v 1 5 -2.5
v 1 6 1.5
v 1 6 0.5
v 1 6 -1.5
v 1 6 -2.5
v 1 8 1.5
v 1 8 0.5
v 1 8 -1.5
v 1 8 -2.5
v 1 9 1.5
v 1 9 0.5
v 1 9 -1.5
v 1 9 -2.5
v 1 10 1.5
v 1 10 0.5
v 1 10 -0.5
v 1 10 -1.5
v 1 10 -2.5
v 1 11 1.5
v 1 11 0.5
v 1 11 -1.5
v 1 11 -2.5
v 1 13 1.5
v 1 13 0.5
v 1 13 -1.5
v 1 13 -2.5
v 1 14 1.5
v 1 14 0.5
v 1 14 -1.5
v 1 14 -2.5
v 1 15 0.5
v 1 15 -0.5
v 1 15 -1.5
v 1 16 -0.5
v 1 16 -1.5
v 1 17 0.5
v 1 17 -1.5
v 2 5 0.5
v 2 5 -1.5
v 2 6 0.5
v 2 6 -1.5
v 2 8 0.5
v 2 8 -1.5
v 2 9 0.5
v 2 9 -1.5
v 2 10 0.5
v 2 10 -0.5
v 2 10 -1.5
v 2 11 1.5
v 2 11 0.5
v 2 11 -0.5
v 2 11 -1.5
v 2 11 -2.5
v 2 12 1.5
v 2 12 0.5
v 2 12 -0.5
v 2 12 -1.5
v 2 13 1.5
v 2 13 0.5
v 2 13 -0.5
v 2 13 -1.5
v 2 13 -2.5
v 2 14 0.5
v 2 14 -1.5
v 2 17 0.5
v 2 17 -1.5
v 2 18 0.5
v 2 18 -0.5
v 2 18 -1.5
v 3 6 0.5
v 3 6 -0.5
v 3 7 0.5
v 3 7 -0.5
v 3 18 -0.5
v 3 18 -1.5
v 3 19 -0.5
v 3 19 -1.5
v 6 6 -0.5
v 6 6 -1.5
v 6 7 -0.5
v 6 7 -1.5
v 7 7 0.5
v 7 7 -1.5
v 7 8 0.5
v 7 8 -1.5
v 8 4 1.5
v 8 4 0.5
v 8 5 1.5
v 8 5 0.5
v 9 5 1.5
v 9 5 0.5
v 9 6 1.5
v 9 6 0.5
v 9 10 1.5
v 9 10 0.5
v -2 11 1.5
v -2 13 1.5
v -1 5 1.5
v -1 6 1.5
v -1 8 1.5
v -1 9 1.5
v -1 10 1.5
v -1 11 1.5
v -1 13 1.5
v -1 14 1.5
v 0 10 1.5
v 0 11 1.5
v 1 5 1.5
v 1 6 1.5
v 1 8 1.5
v 1 9 1.5
v 1 10 1.5
v 1 11 1.5
v 1 12 1.5
v 1 13 1.5
v 1 14 1.5
v 2 11 1.5
v 2 12 1.5
v 2 13 1.5
v 5 5 1.5
v 5 6 1.5
v 5 9 1.5
v 5 10 1.5
v 6 4 1.5
v 6 5 1.5
v 6 6 1.5
v 6 8 1.5
v 6 9 1.5
v 7 4 1.5
v 7 5 1.5
v 8 4 1.5
v 8 5 1.5
v 8 6 1.5
v 8 8 1.5
v 8 10 1.5
v 9 5 1.5
v 9 6 1.5
v 9 10 1.5
v -6 7 0.5
v -6 8 0.5
v -5 7 0.5
v -5 8 0.5
v -3 6 0.5
v -3 7 0.5
v -2 5 0.5
v -2 6 0.5
v -2 8 0.5
v -2 9 0.5
v -2 10 0.5
v -2 11 0.5
v -2 13 0.5
v -2 14 0.5
v -1 0 0.5
v -1 2 0.5
v -1 5 0.5
v -1 6 0.5
v -1 8 0.5
v -1 9 0.5
v -1 10 0.5
v -1 11 0.5
v -1 13 0.5
v -1 14 0.5
v -1 15 0.5
v 0 0 0.5
v 0 2 0.5
v 0 10 0.5
v 0 15 0.5
v 0 17 0.5
v 1 0 0.5
v 1 5 0.5
v 1 6 0.5
v 1 8 0.5
v 1 9 0.5
v 1 10 0.5
v 1 11 0.5
v 1 13 0.5
v 1 14 0.5
v 1 15 0.5
v 1 17 0.5
v 1 18 0.5
v 2 5 0.5
v 2 6 0.5
v 2 8 0.5
v 2 9 0.5
v 2 10 0.5
v 2 11 0.5
v 2 13 0.5
v 2 14 0.5
v 2 17 0.5
v 2 18 0.5
v 3 6 0.5
v 3 7 0.5
v 5 7 0.5
v 5 8 0.5
v -8 8 -0.5
v -8 9 -0.5
v -7 6 -0.5
v -7 8 -0.5
v -7 9 -0.5
v -7 15 -0.5
v -6 6 -0.5
v -6 7 -0.5
v -6 8 -0.5
v -6 9 -0.5
v -6 15 -0.5
v -5 7 -0.5
v -5 8 -0.5
v -5 9 -0.5
v -4 6 -0.5
v -4 7 -0.5
v -3 6 -0.5
v -3 7 -0.5
v -1 16 -0.5
v -1 18 -0.5
v 0 16 -0.5
v 0 17 -0.5
v 0 18 -0.5
v 2 18 -0.5
v 2 19 -0.5
v 3 6 -0.5
v 3 7 -0.5
v 3 18 -0.5
v 3 19 -0.5
v 5 6 -0.5
v 5 7 -0.5
v 6 6 -0.5
v 6 7 -0.5
v 5 5 0.5
v 5 6 0.5
v 5 7 0.5
v 5 8 0.5
v 5 9 0.5
v 5 10 0.5
v 6 4 0.5
v 6 5 0.5
v 6 6 0.5
v 6 7 0.5
v 6 8 0.5
v 6 9 0.5
v 7 4 0.5
v 7 5 0.5
v 7 7 0.5
v 7 8 0.5
v 8 4 0.5
v 8 5 0.5
v 8 6 0.5
v 8 8 0.5
v 8 10 0.5
v 9 5 0.5
v 9 6 0.5
v 9 10 0.5
v 0 15 -0.5
v 0 16 -0.5
v 1 15 -0.5
v 1 16 -0.5
v -8 8 -1.5
v -8 9 -1.5
v -7 6 -1.5
v -7 8 -1.5
v -7 9 -1.5
v -7 15 -1.5
v -6 6 -1.5
v -6 8 -1.5
v -6 9 -1.5
v -6 15 -1.5
v -5 8 -1.5
v -5 9 -1.5
v -4 6 -1.5
v -4 8 -1.5
v -3 6 -1.5
v -3 7 -1.5
v -2 5 -1.5
v -2 6 -1.5
v -2 7 -1.5
v -2 8 -1.5
v -2 9 -1.5
v -2 10 -1.5
v -2 11 -1.5
v -2 13 -1.5
v -2 14 -1.5
v -1 0 -1.5
v -1 3 -1.5
v -1 5 -1.5
v -1 6 -1.5
v -1 8 -1.5
v -1 9 -1.5
v -1 10 -1.5
v -1 11 -1.5
v -1 13 -1.5
v -1 14 -1.5
v -1 15 -1.5
v -1 16 -1.5
v -1 18 -1.5
v 0 0 -1.5
v 0 1 -1.5
v 0 3 -1.5
v 0 5 -1.5
v 0 14 -1.5
v 0 17 -1.5
v 0 18 -1.5
v 1 0 -1.5
v 1 1 -1.5
v 1 5 -1.5
v 1 6 -1.5
v 1 8 -1.5
v 1 9 -1.5
v 1 10 -1.5
v 1 11 -1.5
v 1 13 -1.5
v 1 14 -1.5
v 1 15 -1.5
v 1 16 -1.5
v 1 17 -1.5
v 1 18 -1.5
v 2 5 -1.5
v 2 6 -1.5
v 2 8 -1.5
v 2 9 -1.5
v 2 10 -1.5
v 2 11 -1.5
v 2 13 -1.5
v 2 14 -1.5
v 2 17 -1.5
v 2 18 -1.5
v 2 19 -1.5
v 3 18 -1.5
v 3 19 -1.5
v 4 7 -1.5
v 4 8 -1.5
v 5 6 -1.5
v 5 7 -1.5
v 5 8 -1.5
v 6 6 -1.5
v 6 7 -1.5
v 7 7 -1.5
v 7 8 -1.5
v -2 11 -2.5
v -2 12 -2.5
v -2 13 -2.5
v -1 5 -2.5
v -1 6 -2.5
v -1 8 -2.5
v -1 9 -2.5
v -1 10 -2.5
v -1 11 -2.5
v -1 12 -2.5
v -1 13 -2.5
v -1 14 -2.5
v 0 13 -2.5
v 0 14 -2.5
v 1 5 -2.5
v 1 6 -2.5
v 1 8 -2.5
v 1 9 -2.5
v 1 10 -2.5
v 1 11 -2.5
v 1 13 -2.5
v 1 14 -2.5
v 2 11 -2.5
v 2 13 -2.5
v -1 0 0.5
v 0 0 0.5
v 1 0 0.5
v -1 0 -1.5
v 0 0 -1.5
v 1 0 -1.5
v 6 4 1.5
v 7 4 1.5
v 8 4 1.5
v 6 4 0.5
v 7 4 0.5
v 8 4 0.5
v -1 5 1.5
v 1 5 1.5
v 5 5 1.5
v 6 5 1.5
v 8 5 1.5
v 9 5 1.5
v -2 5 0.5
v -1 5 0.5
v 1 5 0.5
v 2 5 0.5
v 5 5 0.5
v 6 5 0.5
v 8 5 0.5
v 9 5 0.5
v 1 5 -0.5
v -2 5 -1.5
v -1 5 -1.5
v 0 5 -1.5
v 1 5 -1.5
v 2 5 -1.5
v -1 5 -2.5
v 1 5 -2.5
v -3 6 0.5
v -2 6 0.5
v 2 6 0.5
v 3 6 0.5
v -7 6 -0.5
v -6 6 -0.5
v -4 6 -0.5
v -3 6 -0.5
v 3 6 -0.5
v 5 6 -0.5
v 6 6 -0.5
v -7 6 -1.5
v -6 6 -1.5
v -4 6 -1.5
v -3 6 -1.5
v -2 6 -1.5
v 2 6 -1.5
v 5 6 -1.5
v 6 6 -1.5
v -6 7 0.5
v -5 7 0.5
v -3 7 0.5
v 3 7 0.5
v 5 7 0.5
v 6 7 0.5
v 7 7 0.5
v -6 7 -0.5
v -5 7 -0.5
v -4 7 -0.5
v -3 7 -0.5
v 3 7 -0.5
v 5 7 -0.5
v 6 7 -0.5
v 6 7 -1.5
v 7 7 -1.5
v -8 8 -0.5
v -7 8 -0.5
v -8 8 -1.5
v -7 8 -1.5
v -1 10 1.5
v 0 10 1.5
v 1 10 1.5
v -2 10 0.5
v -1 10 0.5
v 0 10 0.5
v 1 10 0.5
v 2 10 0.5
v 1 10 -0.5
v 2 10 -0.5
v -2 10 -1.5
v -1 10 -1.5
v 1 10 -1.5
v 2 10 -1.5
v -1 10 -2.5
v 1 10 -2.5
v -2 11 1.5
v -1 11 1.5
v 1 11 1.5
v 2 11 1.5
v -2 11 0.5
v -1 11 0.5
v 1 11 0.5
v 2 11 0.5
v -2 11 -1.5
v -1 11 -1.5
v 1 11 -1.5
v 2 11 -1.5
v -2 11 -2.5
v -1 11 -2.5
v 1 11 -2.5
v 2 11 -2.5
v -1 16 -0.5
v 0 16 -0.5
v 1 16 -0.5
v -1 16 -1.5
v 1 16 -1.5
v 1 17 0.5
v 2 17 0.5
v 1 17 -1.5
v 2 17 -1.5
v 2 18 -0.5
v 3 18 -0.5
v 2 18 -1.5
v 3 18 -1.5
v -6 8 0.5
v -5 8 0.5
v -2 8 0.5
v 2 8 0.5
v 5 8 0.5
v 6 8 0.5
v 7 8 0.5
v -6 8 -0.5
v -5 8 -0.5
v -4 8 -0.5
v -2 8 -0.5
v 4 8 -0.5
v 5 8 -0.5
v 6 8 -0.5
v -5 8 -1.5
v -4 8 -1.5
v -2 8 -1.5
v 2 8 -1.5
v 4 8 -1.5
v 5 8 -1.5
v 7 8 -1.5
v -1 9 1.5
v 1 9 1.5
v -2 9 0.5
v -1 9 0.5
v 1 9 0.5
v 2 9 0.5
v -8 9 -0.5
v -7 9 -0.5
v -6 9 -0.5
v -5 9 -0.5
v -8 9 -1.5
v -7 9 -1.5
v -6 9 -1.5
v -5 9 -1.5
v -2 9 -1.5
v -1 9 -1.5
v 1 9 -1.5
v 2 9 -1.5
v -1 9 -2.5
v 1 9 -2.5
v 5 10 1.5
v 8 10 1.5
v 9 10 1.5
v 5 10 0.5
v 8 10 0.5
v 9 10 0.5
v -2 13 1.5
v -1 13 1.5
v 1 13 1.5
v 2 13 1.5
v -2 13 0.5
v -1 13 0.5
v 1 13 0.5
v 2 13 0.5
v -2 13 -1.5
v -1 13 -1.5
v 1 13 -1.5
v 2 13 -1.5
v -2 13 -2.5
v -1 13 -2.5
v 1 13 -2.5
v 2 13 -2.5
v -1 14 1.5
v 1 14 1.5
v -2 14 0.5
v -1 14 0.5
v 1 14 0.5
v 2 14 0.5
v -2 14 -0.5
v -1 14 -0.5
v -2 14 -1.5
v -1 14 -1.5
v 0 14 -1.5
v 1 14 -1.5
v 2 14 -1.5
v -1 14 -2.5
v 0 14 -2.5
v 1 14 -2.5
v -1 15 0.5
v 0 15 0.5
v -7 15 -0.5
v -6 15 -0.5
v 0 15 -0.5
v 1 15 -0.5
v -7 15 -1.5
v -6 15 -1.5
v -1 15 -1.5
v 1 15 -1.5
v 0 17 0.5
v 1 17 0.5
v 0 17 -0.5
v 0 17 -1.5
v 1 17 -1.5
v 1 18 0.5
v 2 18 0.5
v -1 18 -0.5
v 0 18 -0.5
v 2 18 -0.5
v -1 18 -1.5
v 0 18 -1.5
v 1 18 -1.5
v 2 18 -1.5
v 2 19 -0.5
v 3 19 -0.5
v 2 19 -1.5
v 3 19 -1.5

# faces
f 3/11/1 2/11/1 1/11/1
f 4/11/1 2/11/1 3/11/1
f 7/10/1 6/10/1 5/10/1
f 8/10/1 6/10/1 7/10/1
f 11/12/1 10/12/1 9/12/1
f 12/12/1 10/12/1 11/12/1
f 15/7/1 14/7/1 13/7/1
f 16/7/1 14/7/1 15/7/1
f 19/6/1 18/6/1 17/6/1
f 20/6/1 18/6/1 19/6/1
f 23/5/1 22/5/1 21/5/1
f 24/5/1 22/5/1 23/5/1
f 28/5/1 26/5/1 25/5/1
f 28/5/1 27/5/1 26/5/1
f 29/5/1 27/5/1 28/5/1
f 33/3/1 31/3/1 30/3/1
f 34/3/1 31/3/1 33/3/1
f 35/3/1 31/3/1 34/3/1
f 37/9/1 34/9/1 33/9/1
f 37/3/1 33/3/1 32/3/1
f 38/3/1 35/3/1 34/3/1
f 38/9/1 34/9/1 37/9/1
f 39/9/1 36/9/1 35/9/1
f 39/3/1 35/3/1 38/3/1
f 40/9/1 36/9/1 39/9/1
f 41/3/1 37/3/1 32/3/1
f 41/3/1 38/3/1 37/3/1
f 42/3/1 38/3/1 41/3/1
f 43/9/1 39/9/1 38/9/1
f 43/3/1 38/3/1 42/3/1
f 44/3/1 40/3/1 39/3/1
f 44/9/1 39/9/1 43/9/1
f 45/3/1 40/3/1 44/3/1
f 46/9/1 43/9/1 42/9/1
f 47/3/1 44/3/1 43/3/1
f 47/9/1 43/9/1 46/9/1
f 48/3/1 44/3/1 47/3/1
f 51/6/1 50/6/1 49/6/1
f 52/6/1 50/6/1 51/6/1
f 53/7/1 52/7/1 51/7/1
f 53/6/1 50/6/1 52/6/1
f 54/6/1 50/6/1 53/6/1
f 56/7/1 53/7/1 51/7/1
f 56/7/1 54/7/1 53/7/1
f 57/7/1 54/7/1 56/7/1
f 59/5/1 56/5/1 55/5/1
f 60/5/1 56/5/1 59/5/1
f 61/5/1 58/5/1 57/5/1
f 62/5/1 58/5/1 61/5/1
f 63/2/1 60/2/1 59/2/1
f 64/2/1 60/2/1 63/2/1
f 65/2/1 62/2/1 61/2/1
f 66/2/1 62/2/1 65/2/1
f 67/5/1 64/5/1 63/5/1
f 68/5/1 64/5/1 67/5/1
f 69/5/1 66/5/1 65/5/1
f 70/5/1 66/5/1 69/5/1
f 72/7/1 69/7/1 68/7/1
f 73/7/1 69/7/1 72/7/1
f 75/3/1 72/3/1 71/3/1
f 76/3/1 72/3/1 75/3/1
f 77/3/1 74/3/1 73/3/1
f 78/3/1 74/3/1 77/3/1
f 83/3/1 80/3/1 79/3/1
f 84/3/1 80/3/1 83/3/1
f 86/9/1 82/9/1 81/9/1
f 87/9/1 82/9/1 86/9/1
f 88/3/1 85/3/1 84/3/1
f 88/3/1 86/3/1 85/3/1
f 89/3/1 86/3/1 88/3/1
f 92/4/1 91/4/1 90/4/1
f 93/4/1 91/4/1 92/4/1
f 96/4/1 95/4/1 94/4/1
f 97/4/1 96/4/1 94/4/1
f 98/4/1 96/4/1 97/4/1
f 101/4/1 100/4/1 99/4/1
f 102/4/1 100/4/1 101/4/1
f 105/4/1 104/4/1 103/4/1
f 106/4/1 104/4/1 105/4/1
f 109/8/1 108/8/1 107/8/1
f 110/8/1 108/8/1 109/8/1
f 111/9/1 110/9/1 109/9/1
f 112/9/1 111/9/1 109/9/1
f 113/9/1 112/9/1 109/9/1
f 114/9/1 112/9/1 113/9/1
f 115/8/1 114/8/1 113/8/1
f 116/8/1 114/8/1 115/8/1
f 119/9/1 118/9/1 117/9/1
f 120/9/1 118/9/1 119/9/1
f 121/12/2 122/12/2 123/12/2
f 123/12/2 122/12/2 124/12/2
f 125/11/2 126/11/2 127/11/2
f 127/11/2 126/11/2 128/11/2
f 129/4/2 130/4/2 131/4/2
f 131/4/2 130/4/2 132/4/2
f 133/7/2 134/7/2 135/7/2
f 135/7/2 134/7/2 136/7/2
f 133/7/2 135/7/2 138/7/2
f 135/6/2 136/6/2 139/6/2
f 138/7/2 135/7/2 139/7/2
f 139/6/2 136/6/2 140/6/2
f 137/5/2 138/5/2 142/5/2
f 142/5/2 138/5/2 143/5/2
f 140/5/2 141/5/2 144/5/2
f 144/5/2 141/5/2 145/5/2
f 142/2/2 143/2/2 146/2/2
f 146/2/2 143/2/2 147/2/2
f 144/2/2 145/2/2 148/2/2
f 148/2/2 145/2/2 149/2/2
f 146/5/2 147/5/2 150/5/2
f 150/5/2 147/5/2 151/5/2
f 148/5/2 149/5/2 152/5/2
f 152/5/2 149/5/2 153/5/2
f 151/7/2 152/7/2 155/7/2
f 155/7/2 152/7/2 156/7/2
f 156/7/2 152/7/2 157/7/2
f 154/9/2 155/9/2 159/9/2
f 159/9/2 155/9/2 160/9/2
f 157/3/2 158/3/2 161/3/2
f 161/3/2 158/3/2 162/3/2
f 163/3/2 164/3/2 167/3/2
f 167/3/2 164/3/2 168/3/2
f 165/3/2 166/3/2 169/3/2
f 169/3/2 166/3/2 170/3/2
f 168/3/2 169/3/2 171/3/2
f 171/3/2 169/3/2 172/3/2
f 172/3/2 169/3/2 173/3/2
f 171/4/2 172/4/2 174/4/2
f 171/4/2 174/4/2 176/4/2
f 174/4/2 175/4/2 176/4/2
f 176/4/2 175/4/2 177/4/2
f 178/5/2 179/5/2 180/5/2
f 180/5/2 179/5/2 181/5/2
f 182/5/2 183/5/2 184/5/2
f 184/5/2 183/5/2 185/5/2
f 186/3/2 187/3/2 190/3/2
f 187/9/2 188/9/2 191/9/2
f 190/3/2 187/3/2 191/3/2
f 191/9/2 188/9/2 192/9/2
f 189/3/2 190/3/2 194/3/2
f 190/9/2 191/9/2 195/9/2
f 194/3/2 190/3/2 195/3/2
f 191/3/2 192/3/2 196/3/2
f 195/9/2 191/9/2 196/9/2
f 192/3/2 193/3/2 196/3/2
f 196/3/2 193/3/2 197/3/2
f 194/9/2 195/9/2 198/9/2
f 195/3/2 196/3/2 199/3/2
f 198/9/2 195/9/2 199/9/2
f 196/9/2 197/9/2 200/9/2
f 199/3/2 196/3/2 200/3/2
f 197/3/2 193/3/2 201/3/2
f 200/9/2 197/9/2 201/9/2
f 201/3/2 193/3/2 202/3/2
f 199/3/2 200/3/2 203/3/2
f 200/3/2 201/3/2 203/3/2
f 203/3/2 201/3/2 204/3/2
f 205/4/2 206/4/2 207/4/2
f 207/4/2 206/4/2 208/4/2
f 208/4/2 206/4/2 209/4/2
f 210/6/2 211/6/2 212/6/2
f 212/6/2 211/6/2 213/6/2
f 214/4/2 215/4/2 216/4/2
f 216/4/2 215/4/2 217/4/2
f 218/7/2 219/7/2 220/7/2
f 220/7/2 219/7/2 221/7/2
f 222/6/2 223/6/2 224/6/2
f 224/6/2 223/6/2 225/6/2
f 226/8/2 227/8/2 228/8/2
f 228/8/2 227/8/2 229/8/2
f 230/8/2 231/8/2 232/8/2
f 232/8/2 231/8/2 233/8/2
f 232/9/2 233/9/2 234/9/2
f 234/9/2 233/9/2 235/9/2
f 243/3/3 237/3/3 236/3/3
f 244/3/3 237/3/3 243/3/3
f 246/3/3 243/3/3 242/3/3
f 246/3/3 245/3/3 244/3/3
f 246/3/3 244/3/3 243/3/3
f 247/3/3 245/3/3 246/3/3
f 248/5/3 239/5/3 238/5/3
f 249/2/3 240/2/3 239/2/3
f 249/5/3 239/5/3 248/5/3
f 250/5/3 241/5/3 240/5/3
f 250/2/3 240/2/3 249/2/3
f 251/5/3 241/5/3 250/5/3
f 252/9/3 247/9/3 246/9/3
f 253/3/3 245/3/3 247/3/3
f 253/9/3 247/9/3 252/9/3
f 254/3/3 245/3/3 253/3/3
f 255/3/3 245/3/3 254/3/3
f 256/3/3 245/3/3 255/3/3
f 257/3/3 254/3/3 253/3/3
f 258/9/3 255/9/3 254/9/3
f 258/3/3 254/3/3 257/3/3
f 259/9/3 255/9/3 258/9/3
f 265/8/3 261/8/3 260/8/3
f 266/9/3 262/9/3 261/9/3
f 266/8/3 261/8/3 265/8/3
f 267/9/3 262/9/3 266/9/3
f 268/8/3 263/8/3 262/8/3
f 268/9/3 262/9/3 267/9/3
f 269/9/3 267/9/3 266/9/3
f 269/9/3 265/9/3 264/9/3
f 269/9/3 266/9/3 265/9/3
f 270/9/3 267/9/3 269/9/3
f 271/8/3 270/8/3 269/8/3
f 272/9/3 267/9/3 270/9/3
f 272/8/3 270/8/3 271/8/3
f 273/9/3 267/9/3 272/9/3
f 274/8/3 268/8/3 267/8/3
f 274/9/3 267/9/3 273/9/3
f 275/8/3 263/8/3 268/8/3
f 275/8/3 268/8/3 274/8/3
f 276/8/3 273/8/3 272/8/3
f 277/9/3 274/9/3 273/9/3
f 277/8/3 273/8/3 276/8/3
f 277/9/3 275/9/3 274/9/3
f 278/9/3 275/9/3 277/9/3
f 281/7/3 280/7/3 279/7/3
f 282/7/3 280/7/3 281/7/3
f 284/6/3 282/6/3 281/6/3
f 286/6/3 284/6/3 283/6/3
f 287/6/3 282/6/3 284/6/3
f 287/6/3 284/6/3 286/6/3
f 295/5/3 286/5/3 285/5/3
f 296/2/3 287/2/3 286/2/3
f 296/5/3 286/5/3 295/5/3
f 297/5/3 288/5/3 287/5/3
f 297/2/3 287/2/3 296/2/3
f 298/5/3 288/5/3 297/5/3
f 299/3/3 290/3/3 289/3/3
f 300/3/3 290/3/3 299/3/3
f 301/9/3 292/9/3 291/9/3
f 302/9/3 292/9/3 301/9/3
f 304/6/3 294/6/3 293/6/3
f 305/7/3 295/7/3 294/7/3
f 305/6/3 294/6/3 304/6/3
f 306/7/3 299/7/3 298/7/3
f 307/3/3 303/3/3 302/3/3
f 309/7/3 305/7/3 304/7/3
f 310/7/3 295/7/3 305/7/3
f 310/7/3 305/7/3 309/7/3
f 313/7/3 306/7/3 298/7/3
f 314/7/3 306/7/3 313/7/3
f 317/3/3 307/3/3 302/3/3
f 318/4/3 308/4/3 307/4/3
f 318/3/3 307/3/3 317/3/3
f 319/4/3 308/4/3 318/4/3
f 321/5/3 311/5/3 310/5/3
f 322/2/3 312/2/3 311/2/3
f 322/5/3 311/5/3 321/5/3
f 323/5/3 313/5/3 312/5/3
f 323/2/3 312/2/3 322/2/3
f 324/5/3 313/5/3 323/5/3
f 325/3/3 315/3/3 314/3/3
f 326/3/3 315/3/3 325/3/3
f 327/3/3 317/3/3 316/3/3
f 328/3/3 317/3/3 327/3/3
f 329/4/3 320/4/3 319/4/3
f 330/4/3 320/4/3 329/4/3
f 331/6/3 323/6/3 322/6/3
f 332/6/3 323/6/3 331/6/3
f 333/6/3 323/6/3 332/6/3
f 334/6/3 323/6/3 333/6/3
f 338/11/3 336/11/3 335/11/3
f 339/11/3 336/11/3 338/11/3
f 341/10/3 338/10/3 337/10/3
f 342/10/3 338/10/3 341/10/3
f 343/11/3 339/11/3 338/11/3
f 343/10/3 338/10/3 342/10/3
f 344/12/3 340/12/3 339/12/3
f 344/11/3 339/11/3 343/11/3
f 345/12/3 340/12/3 344/12/3
f 346/6/3 342/6/3 341/6/3
f 347/11/3 344/11/3 343/11/3
f 348/11/3 344/11/3 347/11/3
f 349/6/3 346/6/3 341/6/3
f 350/6/3 346/6/3 349/6/3
f 351/7/3 350/7/3 349/7/3
f 352/7/3 350/7/3 351/7/3
f 355/4/3 354/4/3 353/4/3
f 356/4/3 354/4/3 355/4/3
f 357/4/3 354/4/3 356/4/3
f 362/4/3 359/4/3 358/4/3
f 363/4/3 359/4/3 362/4/3
f 364/6/3 361/6/3 360/6/3
f 365/6/3 361/6/3 364/6/3
f 366/7/3 365/7/3 364/7/3
f 367/7/3 365/7/3 366/7/3
f 368/8/4 369/8/4 375/8/4
f 369/9/4 370/9/4 376/9/4
f 375/8/4 369/8/4 376/8/4
f 376/9/4 370/9/4 377/9/4
f 371/9/4 372/9/4 378/9/4
f 372/8/4 373/8/4 379/8/4
f 378/9/4 372/9/4 379/9/4
f 374/9/4 375/9/4 380/9/4
f 376/9/4 377/9/4 380/9/4
f 375/9/4 376/9/4 380/9/4
f 380/9/4 377/9/4 381/9/4
f 381/9/4 377/9/4 382/9/4
f 378/8/4 379/8/4 383/8/4
f 380/8/4 381/8/4 384/8/4
f 381/9/4 382/9/4 385/9/4
f 384/8/4 381/8/4 385/8/4
f 382/9/4 383/9/4 385/9/4
f 385/9/4 383/9/4 386/9/4
f 383/8/4 379/8/4 387/8/4
f 386/9/4 383/9/4 387/9/4
f 379/8/4 373/8/4 388/8/4
f 387/8/4 379/8/4 388/8/4
f 385/8/4 386/8/4 389/8/4
f 386/9/4 387/9/4 390/9/4
f 389/8/4 386/8/4 390/8/4
f 387/9/4 388/9/4 390/9/4
f 390/9/4 388/9/4 391/9/4
f 392/4/4 393/4/4 394/4/4
f 394/4/4 393/4/4 395/4/4
f 396/11/4 397/11/4 399/11/4
f 399/11/4 397/11/4 400/11/4
f 398/10/4 399/10/4 402/10/4
f 399/11/4 400/11/4 403/11/4
f 402/10/4 399/10/4 403/10/4
f 400/12/4 401/12/4 404/12/4
f 403/11/4 400/11/4 404/11/4
f 404/12/4 401/12/4 405/12/4
f 402/6/4 403/6/4 406/6/4
f 403/11/4 404/11/4 406/11/4
f 406/11/4 404/11/4 407/11/4
f 402/6/4 406/6/4 408/6/4
f 408/6/4 406/6/4 409/6/4
f 408/7/4 409/7/4 410/7/4
f 410/7/4 409/7/4 411/7/4
f 410/6/4 411/6/4 413/6/4
f 411/7/4 409/7/4 414/7/4
f 413/6/4 411/6/4 414/6/4
f 414/7/4 409/7/4 415/7/4
f 412/5/4 413/5/4 423/5/4
f 414/2/4 415/2/4 424/2/4
f 413/2/4 414/2/4 424/2/4
f 423/5/4 413/5/4 424/5/4
f 415/5/4 416/5/4 425/5/4
f 424/2/4 415/2/4 425/2/4
f 425/5/4 416/5/4 426/5/4
f 417/3/4 418/3/4 427/3/4
f 427/3/4 418/3/4 428/3/4
f 419/3/4 420/3/4 429/3/4
f 429/3/4 420/3/4 430/3/4
f 421/6/4 422/6/4 434/6/4
f 434/6/4 422/6/4 435/6/4
f 422/7/4 423/7/4 436/7/4
f 435/6/4 422/6/4 436/6/4
f 436/7/4 423/7/4 437/7/4
f 430/3/4 431/3/4 438/3/4
f 432/4/4 433/4/4 439/4/4
f 439/4/4 433/4/4 440/4/4
f 434/7/4 435/7/4 441/7/4
f 436/6/4 437/6/4 442/6/4
f 441/7/4 435/7/4 442/7/4
f 435/6/4 436/6/4 442/6/4
f 442/6/4 437/6/4 443/6/4
f 426/7/4 427/7/4 446/7/4
f 446/7/4 427/7/4 447/7/4
f 438/3/4 431/3/4 450/3/4
f 450/3/4 431/3/4 451/3/4
f 432/4/4 439/4/4 452/4/4
f 452/4/4 439/4/4 453/4/4
f 443/5/4 444/5/4 455/5/4
f 444/2/4 445/2/4 456/2/4
f 455/5/4 444/5/4 456/5/4
f 445/5/4 446/5/4 457/5/4
f 456/2/4 445/2/4 457/2/4
f 457/5/4 446/5/4 458/5/4
f 447/9/4 448/9/4 459/9/4
f 459/9/4 448/9/4 460/9/4
f 449/3/4 450/3/4 461/3/4
f 461/3/4 450/3/4 462/3/4
f 453/4/4 454/4/4 463/4/4
f 463/4/4 454/4/4 464/4/4
f 464/4/4 465/4/4 466/4/4
f 466/4/4 465/4/4 467/4/4
f 456/6/4 457/6/4 468/6/4
f 468/6/4 457/6/4 469/6/4
f 456/6/4 468/6/4 470/6/4
f 468/7/4 469/7/4 471/7/4
f 470/6/4 468/6/4 471/6/4
f 471/7/4 469/7/4 472/7/4
f 470/7/4 471/7/4 473/7/4
f 471/6/4 472/6/4 474/6/4
f 473/7/4 471/7/4 474/7/4
f 474/6/4 472/6/4 475/6/4
f 475/6/4 472/6/4 476/6/4
f 477/9/4 478/9/4 485/9/4
f 478/3/4 479/3/4 486/3/4
f 485/9/4 478/9/4 486/9/4
f 486/3/4 479/3/4 487/3/4
f 484/3/4 485/3/4 489/3/4
f 487/9/4 488/9/4 489/9/4
f 486/3/4 487/3/4 489/3/4
f 485/3/4 486/3/4 489/3/4
f 489/9/4 488/9/4 490/9/4
f 480/5/4 481/5/4 491/5/4
f 481/2/4 482/2/4 492/2/4
f 491/5/4 481/5/4 492/5/4
f 482/5/4 483/5/4 493/5/4
f 492/2/4 482/2/4 493/2/4
f 493/5/4 483/5/4 494/5/4
f 484/3/4 489/3/4 495/3/4
f 489/3/4 490/3/4 495/3/4
f 495/3/4 490/3/4 496/3/4
f 496/3/4 490/3/4 497/3/4
f 497/3/4 490/3/4 498/3/4
f 496/3/4 497/3/4 499/3/4
f 499/3/4 497/3/4 500/3/4
f 504/6/5 502/6/5 501/6/5
f 505/7/5 503/7/5 502/7/5
f 505/6/5 502/6/5 504/6/5
f 506/7/5 503/7/5 505/7/5
f 510/9/5 508/9/5 507/9/5
f 511/8/5 509/8/5 508/8/5
f 511/9/5 508/9/5 510/9/5
f 512/8/5 509/8/5 511/8/5
f 520/5/5 514/5/5 513/5/5
f 521/5/5 514/5/5 520/5/5
f 523/8/5 516/8/5 515/8/5
f 524/8/5 516/8/5 523/8/5
f 525/8/5 518/8/5 517/8/5
f 526/8/5 518/8/5 525/8/5
f 527/5/5 522/5/5 521/5/5
f 528/5/5 520/5/5 519/5/5
f 529/5/5 520/5/5 528/5/5
f 531/5/5 522/5/5 527/5/5
f 532/5/5 522/5/5 531/5/5
f 533/5/5 530/5/5 529/5/5
f 533/5/5 531/5/5 530/5/5
f 534/5/5 531/5/5 533/5/5
f 542/6/5 536/6/5 535/6/5
f 543/6/5 538/6/5 537/6/5
f 546/10/5 540/10/5 539/10/5
f 547/6/5 541/6/5 540/6/5
f 547/10/5 540/10/5 546/10/5
f 548/7/5 542/7/5 541/7/5
f 548/6/5 541/6/5 547/6/5
f 549/6/5 536/6/5 542/6/5
f 549/7/5 542/7/5 548/7/5
f 550/6/5 536/6/5 549/6/5
f 551/6/5 543/6/5 537/6/5
f 551/6/5 544/6/5 543/6/5
f 552/7/5 545/7/5 544/7/5
f 552/6/5 544/6/5 551/6/5
f 553/7/5 545/7/5 552/7/5
f 561/7/5 555/7/5 554/7/5
f 562/6/5 556/6/5 555/6/5
f 562/7/5 555/7/5 561/7/5
f 563/6/5 556/6/5 562/6/5
f 564/6/5 556/6/5 563/6/5
f 565/6/5 558/6/5 557/6/5
f 566/7/5 559/7/5 558/7/5
f 566/6/5 558/6/5 565/6/5
f 567/6/5 560/6/5 559/6/5
f 567/7/5 559/7/5 566/7/5
f 568/6/5 560/6/5 567/6/5
f 569/6/5 560/6/5 568/6/5
f 572/11/5 571/11/5 570/11/5
f 573/11/5 571/11/5 572/11/5
f 578/3/5 575/3/5 574/3/5
f 579/9/5 576/9/5 575/9/5
f 579/3/5 575/3/5 578/3/5
f 580/9/5 576/9/5 579/9/5
f 582/3/5 581/3/5 580/3/5
f 583/3/5 581/3/5 582/3/5
f 584/3/5 578/3/5 577/3/5
f 585/3/5 578/3/5 584/3/5
f 586/9/5 583/9/5 582/9/5
f 587/9/5 583/9/5 586/9/5
f 588/3/5 586/3/5 585/3/5
f 589/3/5 586/3/5 588/3/5
f 594/3/5 591/3/5 590/3/5
f 595/3/5 591/3/5 594/3/5
f 596/3/5 593/3/5 592/3/5
f 597/3/5 593/3/5 596/3/5
f 602/9/5 599/9/5 598/9/5
f 603/9/5 599/9/5 602/9/5
f 604/3/5 601/3/5 600/3/5
f 605/3/5 601/3/5 604/3/5
f 609/4/5 607/4/5 606/4/5
f 609/4/5 608/4/5 607/4/5
f 610/4/5 608/4/5 609/4/5
f 613/4/5 612/4/5 611/4/5
f 614/4/5 612/4/5 613/4/5
f 617/4/5 616/4/5 615/4/5
f 618/4/5 616/4/5 617/4/5
f 619/7/6 620/7/6 626/7/6
f 620/6/6 621/6/6 627/6/6
f 626/7/6 620/7/6 627/7/6
f 627/6/6 621/6/6 628/6/6
f 628/6/6 621/6/6 629/6/6
f 622/6/6 623/6/6 630/6/6
f 623/7/6 624/7/6 631/7/6
f 630/6/6 623/6/6 631/6/6
f 624/6/6 625/6/6 632/6/6
f 631/7/6 624/7/6 632/7/6
f 627/6/6 628/6/6 633/6/6
f 628/7/6 629/7/6 634/7/6
f 633/6/6 628/6/6 634/6/6
f 634/7/6 629/7/6 635/7/6
f 622/6/6 630/6/6 636/6/6
f 630/7/6 631/7/6 637/7/6
f 636/6/6 630/6/6 637/6/6
f 631/6/6 632/6/6 638/6/6
f 637/7/6 631/7/6 638/7/6
f 632/6/6 625/6/6 639/6/6
f 638/6/6 632/6/6 639/6/6
f 640/5/6 641/5/6 643/5/6
f 643/5/6 641/5/6 644/5/6
f 646/11/6 647/11/6 650/11/6
f 650/11/6 647/11/6 651/11/6
f 648/11/6 649/11/6 652/11/6
f 652/11/6 649/11/6 653/11/6
f 642/5/6 643/5/6 654/5/6
f 654/5/6 643/5/6 655/5/6
f 644/5/6 645/5/6 656/5/6
f 656/5/6 645/5/6 657/5/6
f 655/5/6 656/5/6 658/5/6
f 658/5/6 656/5/6 659/5/6
f 660/8/6 661/8/6 663/8/6
f 661/9/6 662/9/6 664/9/6
f 663/8/6 661/8/6 664/8/6
f 664/9/6 662/9/6 665/9/6
f 666/3/6 667/3/6 670/3/6
f 670/3/6 667/3/6 671/3/6
f 668/9/6 669/9/6 672/9/6
f 672/9/6 669/9/6 673/9/6
f 674/3/6 675/3/6 678/3/6
f 678/3/6 675/3/6 679/3/6
f 676/3/6 677/3/6 680/3/6
f 680/3/6 677/3/6 681/3/6
f 682/3/6 683/3/6 685/3/6
f 685/3/6 683/3/6 686/3/6
f 684/9/6 685/9/6 688/9/6
f 688/9/6 685/9/6 689/9/6
f 688/3/6 689/3/6 690/3/6
f 690/3/6 689/3/6 691/3/6
f 686/3/6 687/3/6 693/3/6
f 693/3/6 687/3/6 694/3/6
f 691/9/6 692/9/6 695/9/6
f 692/3/6 693/3/6 696/3/6
f 695/9/6 692/9/6 696/9/6
f 696/3/6 693/3/6 697/3/6
f 698/3/6 699/3/6 702/3/6
f 700/12/6 701/12/6 704/12/6
f 704/12/6 701/12/6 705/12/6
f 702/3/6 703/3/6 706/3/6
f 698/3/6 702/3/6 706/3/6
f 706/3/6 703/3/6 707/3/6
f 708/4/6 709/4/6 710/4/6
f 710/4/6 709/4/6 711/4/6
f 711/4/6 709/4/6 712/4/6
f 713/4/6 714/4/6 717/4/6
f 715/4/6 716/4/6 718/4/6
f 718/4/6 716/4/6 719/4/6
f 713/4/6 717/4/6 720/4/6
f 720/4/6 717/4/6 721/4/6
f 722/4/6 723/4/6 724/4/6
f 724/4/6 723/4/6 725/4/6
